# xmcd
# 
# Track frame offsets:
#     150
#     14062
#     31083
#     44890
#     55704
#     69557
#     81616
#     95801
#     111422
#     123435
# 
# Disc length: 1807
# 
# Revision: 2
# Processed by: cddbd v1.5.2PL0 Copyright (c) Steve Scherf et al.
# Submitted via: fre:ac v1.1beta1pre5
# 
DISCID=94070d0a
DTITLE=Dolly Parton - The Box Set Series [CD2]
DYEAR=2014
DGENRE=Country
TTITLE0=Coat of many Colors
TTITLE1=Down from Dover
TTITLE2=Daddy was an old time preacher man (with Porter Wagoner)
TTITLE3=Just someone that I used to know (with Porter Wagoner)
TTITLE4=Joshua
TTITLE5=Touch your woman
TTITLE6=My Tennessee Mountain Home
TTITLE7=In the good old days (when times were bad)
TTITLE8=Traveling Man
TTITLE9=Jolene
EXTD=(c)2014
EXTT0=
EXTT1=
EXTT2=
EXTT3=
EXTT4=
EXTT5=
EXTT6=
EXTT7=
EXTT8=
EXTT9=
PLAYORDER=
